<svg width="64" height="64" viewBox="0 0 64 64" fill="none" xmlns="http://www.w3.org/2000/svg">
<path d="M32.0002 32C46.7282 32 58.6668 43.9387 58.6668 58.6667V64H5.3335V58.6667C5.3335 43.9387 17.2722 32 32.0002 32ZM32.0002 29.3333C28.1103 29.3333 24.3798 27.7881 21.6293 25.0376C18.8787 22.287 17.3335 18.5565 17.3335 14.6667C17.3335 10.7768 18.8787 7.0463 21.6293 4.29577C24.3798 1.54523 28.1103 0 32.0002 0C35.89 0 39.6205 1.54523 42.3711 4.29577C45.1216 7.0463 46.6668 10.7768 46.6668 14.6667C46.6668 18.5565 45.1216 22.287 42.3711 25.0376C39.6205 27.7881 35.89 29.3333 32.0002 29.3333Z" fill="#CDCDCD"/>
</svg>
