<svg width="25" height="25" viewBox="0 0 25 25" fill="none" xmlns="http://www.w3.org/2000/svg">
<path d="M14.5707 19.951C16.1301 18.3916 16.6509 16.0895 16.1259 14.101L20.5624 9.45202L23.6061 9.17389L23.5884 9.15514C23.6376 9.16413 23.6883 9.16116 23.7362 9.14648C23.784 9.1318 23.8277 9.10583 23.8634 9.07077C23.8935 9.04102 23.9174 9.00561 23.9337 8.96659C23.9501 8.92756 23.9585 8.88569 23.9586 8.84338C23.9587 8.80107 23.9505 8.75916 23.9343 8.72006C23.9181 8.68097 23.8944 8.64545 23.8644 8.61556L16.3853 1.13535C16.3246 1.07506 16.2425 1.04131 16.1569 1.0415C16.0714 1.0417 15.9894 1.07583 15.929 1.13639C15.8942 1.17248 15.8683 1.2163 15.8537 1.26428C15.839 1.31226 15.8359 1.36303 15.8447 1.41244L15.8269 1.39369L15.5488 4.43848L10.8988 8.87494C8.91028 8.3489 6.6082 8.87077 5.04882 10.4291L9.01653 14.3968L3.46236 19.951C2.66861 20.7447 0.740488 23.0291 1.08216 23.9187C1.9707 24.2604 4.25611 22.3312 5.04882 21.5374L10.603 15.9833L14.5707 19.951Z" fill="#587052"/>
</svg>
